<svg width="26" height="26" viewBox="0 0 26 26" fill="none" xmlns="http://www.w3.org/2000/svg">
<path fill-rule="evenodd" clip-rule="evenodd" d="M19.9739 21.4042C17.8594 23.1941 15.1241 24.2734 12.1367 24.2734C5.43381 24.2734 0 18.8396 0 12.1367C0 5.43379 5.43381 0 12.1367 0C18.8397 0 24.2735 5.43379 24.2735 12.1367C24.2735 15.1241 23.1942 17.8594 21.4042 19.9739L26 24.5697L24.5697 26L19.9739 21.4042ZM22.2507 12.1367C22.2507 17.7225 17.7225 22.2506 12.1367 22.2506C6.55096 22.2506 2.02279 17.7225 2.02279 12.1367C2.02279 6.55095 6.55096 2.02279 12.1367 2.02279C17.7225 2.02279 22.2507 6.55095 22.2507 12.1367Z" fill="#00AEEF"/>
</svg>
