<svg xmlns="http://www.w3.org/2000/svg" width="16" height="24" viewBox="0 0 16 24" fill="#212126"><path d="M4.26434 16.3761L4.13634 11.1601H5.35234C6.50434 11.1601 7.56034 11.0534 8.52034 10.8401C9.50168 10.6267 10.2803 10.2107 10.8563 9.59206C11.4537 8.9734 11.7523 8.05606 11.7523 6.84007C11.7523 5.66673 11.3897 4.7494 10.6643 4.08806C9.93901 3.4054 8.98967 3.06406 7.81634 3.06406C6.60034 3.06406 5.64034 3.39473 4.93634 4.05606C4.23234 4.7174 3.88034 5.6134 3.88034 6.74406H0.680342C0.659009 5.46406 0.936343 4.3334 1.51234 3.35206C2.10968 2.37073 2.94168 1.60273 4.00834 1.04806C5.09634 0.493397 6.36567 0.216064 7.81634 0.216064C9.22434 0.216064 10.4723 0.482731 11.5603 1.01606C12.6483 1.5494 13.491 2.3174 14.0883 3.32006C14.707 4.3014 15.0163 5.4854 15.0163 6.87206C15.0163 8.38673 14.6857 9.63473 14.0243 10.6161C13.363 11.5761 12.4563 12.2907 11.3043 12.7601C10.1523 13.2081 8.82968 13.4321 7.33634 13.4321L7.24034 16.3761H4.26434ZM5.76834 23.1921C5.10701 23.1921 4.57368 22.9894 4.16834 22.5841C3.76301 22.1574 3.56034 21.6561 3.56034 21.0801C3.56034 20.4827 3.76301 19.9814 4.16834 19.5761C4.57368 19.1494 5.10701 18.9361 5.76834 18.9361C6.38701 18.9361 6.89901 19.1494 7.30434 19.5761C7.73101 19.9814 7.94434 20.4827 7.94434 21.0801C7.94434 21.6561 7.73101 22.1574 7.30434 22.5841C6.89901 22.9894 6.38701 23.1921 5.76834 23.1921Z"></path></svg>