<svg xmlns="http://www.w3.org/2000/svg" width="16" height="16" viewBox="0 0 16 16" fill="none"><g clip-path="url(#clip0)"><path d="M1.40029 2.45478L1.42342 2.44033L4.34699 1L7.50251 5.20735L6.05074 7.14318C6.09418 7.87323 6.40377 8.56201 6.92091 9.07915C7.43805 9.59628 8.12684 9.90586 8.85689 9.9493L10.7927 8.49752L15 11.653L13.5717 14.5521L13.5596 14.5766L13.5452 14.5997C13.4689 14.7225 13.3625 14.8238 13.2361 14.8938C13.1097 14.9639 12.9674 15.0005 12.8229 15H12.0685C10.615 15 9.17565 14.7137 7.83276 14.1575C6.48986 13.6012 5.26968 12.7859 4.24188 11.7581C3.21407 10.7303 2.39877 9.51011 1.84253 8.16721C1.28629 6.82432 0.999999 5.38501 1 3.93148V3.17706C0.999541 3.03251 1.03608 2.89026 1.10615 2.76383C1.17622 2.6374 1.27748 2.53101 1.40029 2.45478Z" stroke="white" stroke-width="2"></path></g><defs><clipPath id="clip0"><rect width="16" height="16" fill="white" transform="matrix(-1 0 0 1 16 0)"></rect></clipPath></defs></svg>