<svg xmlns="http://www.w3.org/2000/svg" width="48" height="48" viewBox="0 0 48 48" fill="none"><path d="M46.3323 43.5408L40.5938 37.8023L38.1006 38.1006L37.8023 40.5938L43.5408 46.3323C42.7929 46.8314 41.9936 47.2186 41.1667 47.4938C37.7686 48.6244 33.9049 47.8626 31.2361 45.1938C28.468 42.4257 27.7513 38.3721 29.0701 34.8859L23.9936 29.8093L25.7614 28.0416L31.9798 34.26L31.4084 35.7704C30.4179 38.389 30.9691 41.3912 33.0038 43.426C34.6423 45.0645 36.9129 45.7404 39.0982 45.4253L35.1757 41.5028L35.8519 35.8519L41.5028 35.1757L45.4253 39.0982C45.7404 36.9129 45.0645 34.6423 43.426 33.0038C41.3912 30.9691 38.389 30.4179 35.7704 31.4084L34.26 31.9798L28.0416 25.7614L29.8093 23.9936L34.8859 29.0701C38.3721 27.7513 42.4257 28.468 45.1938 31.2361C47.8626 33.9049 48.6244 37.7686 47.4938 41.1667C47.2186 41.9936 46.8314 42.7929 46.3323 43.5408Z" fill="#212126"></path><path d="M23.9574 18.1417L18.9299 13.1141C20.2487 9.62794 19.532 5.57434 16.7639 2.80624C14.0951 0.137438 10.2314 -0.624426 6.83332 0.506246C6.00641 0.781392 5.20706 1.16861 4.45923 1.66769L10.1977 7.40617L9.89936 9.89936L7.40617 10.1977L1.66769 4.45923C1.16861 5.20706 0.781391 6.00641 0.506246 6.83332C-0.624426 10.2314 0.137438 14.0951 2.80624 16.7639C5.57434 19.532 9.62794 20.2487 13.1142 18.9299L18.1417 23.9574L19.9095 22.1896L13.74 16.0202L12.2296 16.5916C9.61104 17.5821 6.60876 17.0309 4.57401 14.9962C2.93549 13.3577 2.25963 11.0871 2.57474 8.90181L6.49725 12.8243L12.1481 12.1481L12.8243 6.49725L8.90181 2.57474C11.0871 2.25963 13.3577 2.93549 14.9962 4.57401C17.0309 6.60876 17.5821 9.61104 16.5916 12.2296L16.0202 13.74L22.1896 19.9095L23.9574 18.1417Z" fill="#212126"></path><path fill-rule="evenodd" clip-rule="evenodd" d="M43.2875 10.6031L41.2263 8.542L19.725 30.0422L22.3752 32.6924L24.1429 34.4602L22.3757 36.2274L20.6085 34.4602L8.53275 46.536C6.58077 48.488 3.41597 48.488 1.46399 46.536C-0.487997 44.584 -0.487995 41.4192 1.46399 39.4673L13.5392 27.392L11.7726 25.6243L13.5398 23.8571L17.9572 28.2745L39.4586 6.77423L37.3969 4.71251L44.4656 0L48 3.53438L43.2875 10.6031ZM42.8989 6.67905L44.783 3.85293L44.1471 3.21699L41.321 5.10107L42.8989 6.67905ZM16.1894 30.0422L15.307 29.1598L3.23175 41.235C2.25608 42.2107 2.25608 43.7926 3.23175 44.7682C4.20743 45.7439 5.78931 45.7439 6.76498 44.7682L18.8402 32.693L17.9578 31.8106L16.1894 30.0422Z" fill="#D2D2D4"></path></svg>