<svg xmlns="http://www.w3.org/2000/svg" width="48" height="48" viewBox="0 0 48 48" fill="none"><path fill-rule="evenodd" clip-rule="evenodd" d="M0 0H48V17.2634H45.5213V2.46506H2.47873V30.5349H25.2676V33H0V0Z" fill="#212126"></path><path fill-rule="evenodd" clip-rule="evenodd" d="M11.6524 6H36.3476V7.24522C36.3476 9.40529 38.2434 11.2884 40.7506 11.2884H42V17.2712H39.5012V13.6711C36.7496 13.1913 34.5117 11.1564 33.9727 8.49044H14.0273C13.4883 11.1564 11.2504 13.1913 8.49885 13.6711V19.3289C11.2504 19.8087 13.4883 21.8436 14.0273 24.5096H25.2738V27H11.6524V25.7548C11.6524 23.5947 9.75664 21.7116 7.24942 21.7116H6V11.2884H7.24942C9.75664 11.2884 11.6524 9.40529 11.6524 7.24522V6Z" fill="#D2D2D4"></path><path d="M32 34V48L37.5 43.3548L43 48V34L40.3763 34.5V43L37.5 40.2299L34.6237 43V34.5L32 34Z" fill="#212126"></path><path fill-rule="evenodd" clip-rule="evenodd" d="M39.1267 22.8948L38.0153 21.7004L39.9116 20.0345L41.023 21.2289C41.4851 21.7255 42.1028 22.0662 42.7841 22.2001L44.4227 22.5223C46.315 22.8944 47.4431 24.7608 46.8343 26.5122L44.4123 25.7173C44.5148 25.4224 44.3413 25.0406 43.9157 24.957L42.2771 24.6348C41.0651 24.3965 39.9589 23.7891 39.1267 22.8948ZM39.9116 20.0345L38.0153 21.7004C37.7468 21.4118 37.2532 21.4118 36.9847 21.7004L35.8733 22.8948C35.0411 23.7891 33.9349 24.3965 32.7229 24.6348L31.0843 24.957C30.6587 25.0406 30.4852 25.4224 30.5877 25.7173L31.1149 27.2339C31.5134 28.3801 31.5134 29.6199 31.1149 30.7661L30.5877 32.2827C30.4852 32.5776 30.6587 32.9594 31.0843 33.043L32.7229 33.3652C33.9349 33.6035 35.0411 34.2109 35.8733 35.1052L36.9847 36.2996C37.2532 36.5882 37.7468 36.5882 38.0153 36.2996L39.1267 35.1052C39.9589 34.2109 41.0651 33.6035 42.2771 33.3652L43.9157 33.043C44.3413 32.9594 44.5148 32.5776 44.4123 32.2827L43.8851 30.7661C43.4866 29.6199 43.4866 28.3801 43.8851 27.2339L44.4123 25.7173L46.8343 26.5122L46.3071 28.0288C46.0879 28.6593 46.0879 29.3407 46.3071 29.9712L46.8343 31.4878C47.4431 33.2392 46.315 35.1056 44.4227 35.4777L42.7841 35.7999C42.1028 35.9338 41.4851 36.2745 41.023 36.7711L39.9116 37.9655C38.6281 39.3448 36.3719 39.3448 35.0884 37.9655L33.977 36.7711C33.5149 36.2745 32.8972 35.9338 32.2159 35.7999L30.5773 35.4777C28.685 35.1056 27.5569 33.2392 28.1657 31.4878L28.6929 29.9712C28.9121 29.3407 28.9121 28.6593 28.6929 28.0288L28.1657 26.5122C27.5569 24.7608 28.685 22.8944 30.5773 22.5223L32.2159 22.2001C32.8972 22.0662 33.5149 21.7255 33.977 21.2289L35.0884 20.0345C36.3719 18.6552 38.6281 18.6552 39.9116 20.0345Z" fill="#212126"></path><path fill-rule="evenodd" clip-rule="evenodd" d="M37.6129 29.4677C37.9425 29.4677 38.2097 29.2005 38.2097 28.8709C38.2097 28.5414 37.9425 28.2742 37.6129 28.2742C37.2833 28.2742 37.0161 28.5414 37.0161 28.8709C37.0161 29.2005 37.2833 29.4677 37.6129 29.4677ZM37.6129 31.9677C39.3232 31.9677 40.7097 30.5812 40.7097 28.8709C40.7097 27.1606 39.3232 25.7742 37.6129 25.7742C35.9026 25.7742 34.5161 27.1606 34.5161 28.8709C34.5161 30.5812 35.9026 31.9677 37.6129 31.9677Z" fill="#D2D2D4"></path></svg>