<svg xmlns="http://www.w3.org/2000/svg" width="48" height="48" viewBox="0 0 48 48" fill="none"><path fill-rule="evenodd" clip-rule="evenodd" d="M24 45.5C35.8741 45.5 45.5 35.8741 45.5 24C45.5 12.1259 35.8741 2.5 24 2.5C12.1259 2.5 2.5 12.1259 2.5 24C2.5 35.8741 12.1259 45.5 24 45.5ZM24 48C37.2548 48 48 37.2548 48 24C48 10.7452 37.2548 0 24 0C10.7452 0 0 10.7452 0 24C0 37.2548 10.7452 48 24 48Z" fill="#212126"></path><path d="M28.3583 26.3797C27.9436 27.1002 27.3559 27.7034 26.654 28.1292L35.2957 37L37 35.2505L28.3583 26.3797Z" fill="#D2D2D4"></path><path d="M25.4103 11V19.0734C25.0251 18.9716 24.6213 18.9175 24.2052 18.9175C23.789 18.9175 23.3852 18.9716 23 19.0734V11H25.4103Z" fill="#D2D2D4"></path><path fill-rule="evenodd" clip-rule="evenodd" d="M24 27.2321C25.7851 27.2321 27.2321 25.7851 27.2321 24C27.2321 22.2149 25.7851 20.7679 24 20.7679C22.2149 20.7679 20.7679 22.2149 20.7679 24C20.7679 25.7851 22.2149 27.2321 24 27.2321ZM24 30C27.3137 30 30 27.3137 30 24C30 20.6863 27.3137 18 24 18C20.6863 18 18 20.6863 18 24C18 27.3137 20.6863 30 24 30Z" fill="#D2D2D4"></path></svg>