<svg xmlns="http://www.w3.org/2000/svg" width="48" height="48" viewBox="0 0 48 48" fill="none"><path fill-rule="evenodd" clip-rule="evenodd" d="M17 2.78215C17 1.27308 18.1963 0 19.7322 0H45.2678C46.8037 0 48 1.27308 48 2.78215V16.6929C48 18.202 46.8037 19.4751 45.2678 19.4751H39.7783L30.5443 29L30.5217 19.4751H28.7448C28.0654 19.4751 27.5146 18.9214 27.5146 18.2385C27.5146 17.5556 28.0654 17.002 28.7448 17.002H32.9762L32.9902 22.9335L38.7405 17.002H45.2678C45.3909 17.002 45.5397 16.8911 45.5397 16.6929V2.78215C45.5397 2.58395 45.3909 2.47302 45.2678 2.47302H19.7322C19.6091 2.47302 19.4603 2.58395 19.4603 2.78215V10.4605C19.4603 11.1434 18.9096 11.697 18.2302 11.697C17.5508 11.697 17 11.1434 17 10.4605V2.78215Z" fill="#D2D2D4"></path><circle cx="27.6" cy="10.1999" r="1.2" fill="#212126"></circle><circle cx="33.2" cy="10.1999" r="1.2" fill="#212126"></circle><circle cx="38.8" cy="10.1999" r="1.2" fill="#212126"></circle><path fill-rule="evenodd" clip-rule="evenodd" d="M18.4137 30.8569L19.6838 30.1392C21.8865 28.8945 23.3275 26.5959 23.3275 24C23.3275 20.1337 20.1024 16.9 16 16.9C11.8976 16.9 8.67253 20.1337 8.67253 24C8.67253 26.5959 10.1135 28.8945 12.3162 30.1392L13.5863 30.8569V32.4549C13.5863 35.6788 11.4502 38.4747 8.39356 39.4196L3.66943 41.0631L2.7155 45.5H29.2845L28.3306 41.0631L23.6064 39.4196C20.5498 38.4747 18.4137 35.6788 18.4137 32.4549V30.8569ZM24.3824 37.0426L29.585 38.8525C30.2722 39.0591 30.7412 39.6793 30.7412 40.3817L31.9644 46.0712C32.1782 47.0654 31.4015 48 30.3615 48H1.63852C0.598484 48 -0.17819 47.0654 0.0355753 46.0712L1.25879 40.3817C1.25879 39.6793 1.72776 39.0591 2.41501 38.8525L7.61759 37.0426C9.67935 36.4229 11.0863 34.5621 11.0863 32.4549V32.3157C8.14882 30.6558 6.17252 27.5534 6.17252 24C6.17252 18.6981 10.5724 14.4 16 14.4C21.4276 14.4 25.8275 18.6981 25.8275 24C25.8275 27.5534 23.8512 30.6558 20.9137 32.3157V32.4549C20.9137 34.5621 22.3207 36.4229 24.3824 37.0426Z" fill="#212126"></path></svg>