<svg xmlns="http://www.w3.org/2000/svg" width="5" height="7" viewBox="0 0 5 7" fill="#212126"><path d="M2.848 4.59202C2.50667 4.59202 2.18667 4.50669 1.888 4.33602C1.6 4.16536 1.37067 3.93602 1.2 3.64802C1.02933 3.34936 0.944 3.02402 0.944 2.67202C0.944 2.30936 1.02933 1.98402 1.2 1.69602C1.37067 1.39736 1.6 1.16269 1.888 0.992023C2.18667 0.821356 2.50667 0.736023 2.848 0.736023C3.21067 0.736023 3.536 0.821356 3.824 0.992023C4.12267 1.16269 4.35733 1.39736 4.528 1.69602C4.69867 1.98402 4.784 2.30936 4.784 2.67202C4.784 3.02402 4.69867 3.34936 4.528 3.64802C4.35733 3.93602 4.12267 4.16536 3.824 4.33602C3.536 4.50669 3.21067 4.59202 2.848 4.59202Z"></path></svg>